Coordinates
version=1
nRows=37
nColumns=38
inDegrees=no

Units are S.I. units (second, meters, Newtons, ...)
If the header above contains a line with 'inDegrees', this indicates whether rotational values are in degrees (yes) or radians (no).

endheader
time	pelvis_tilt	pelvis_list	pelvis_rotation	pelvis_tx	pelvis_ty	pelvis_tz	hip_flexion_r	hip_adduction_r	hip_rotation_r	knee_angle_r	ankle_angle_r	subtalar_angle_r	mtp_angle_r	hip_flexion_l	hip_adduction_l	hip_rotation_l	knee_angle_l	ankle_angle_l	subtalar_angle_l	mtp_angle_l	lumbar_extension	lumbar_bending	lumbar_rotation	arm_flex_r	arm_add_r	arm_rot_r	elbow_flex_r	pro_sup_r	wrist_flex_r	wrist_dev_r	arm_flex_l	arm_add_l	arm_rot_l	elbow_flex_l	pro_sup_l	wrist_flex_l	wrist_dev_l
1.33	2.96453	1.31392	-1.37347	0.804699	0.547544	0.953681	-0.372797	0.0937313	-0.121784	0.30842	-0.159906	0	0	0.210528	-0.115252	-0.155737	0.604327	-0.149803	0	0	-0.504365	0.0862885	0.0378653	-0.0796862	-0.630744	0.867174	0.90342	0.522023	0	0	-0.124805	-0.317716	0.296606	0.672634	1.11376	0	0
1.34	2.95769	1.31932	-1.363	0.803928	0.556099	0.95229	-0.383582	0.096162	-0.120546	0.29486	-0.15935	0	0	0.204792	-0.107286	-0.149254	0.528387	-0.146255	0	0	-0.497578	0.0886539	0.0373368	-0.0828981	-0.629538	0.862981	0.902044	0.521973	0	0	-0.120344	-0.318515	0.307169	0.66776	1.10834	0	0
1.35	2.95068	1.32479	-1.35283	0.803008	0.564894	0.950524	-0.390173	0.096635	-0.125243	0.292816	-0.156731	0	0	0.202225	-0.103911	-0.157371	0.466313	-0.14355	0	0	-0.490552	0.0909859	0.036596	-0.0873208	-0.630214	0.857922	0.9036	0.522469	0	0	-0.118771	-0.319265	0.314691	0.666308	1.10466	0	0
1.36	2.93937	1.32971	-1.33854	0.801925	0.57363	0.948982	-0.398882	0.0989516	-0.12484	0.283926	-0.157262	0	0	0.198026	-0.100743	-0.162256	0.407122	-0.141741	0	0	-0.484122	0.0944737	0.0366692	-0.0911094	-0.63106	0.853504	0.903979	0.525096	0	0	-0.115526	-0.31889	0.322608	0.663127	1.09934	0	0
1.37	2.92973	1.33551	-1.32651	0.800918	0.582432	0.947343	-0.403836	0.0988703	-0.125399	0.281943	-0.157047	0	0	0.194292	-0.0966377	-0.166229	0.35399	-0.139127	0	0	-0.476668	0.0967484	0.0368341	-0.0947979	-0.631369	0.849344	0.903661	0.528547	0	0	-0.112698	-0.318692	0.329909	0.659835	1.0947	0	0
1.38	2.9214	1.33901	-1.31575	0.799744	0.591227	0.946092	-0.408908	0.0997866	-0.129025	0.284205	-0.156649	0	0	0.186668	-0.0920221	-0.168169	0.302694	-0.139601	0	0	-0.471766	0.0993151	0.0373985	-0.0988487	-0.631412	0.843837	0.902945	0.530256	0	0	-0.108889	-0.317809	0.33746	0.655543	1.09139	0	0
1.39	2.91216	1.34227	-1.30553	0.798802	0.600052	0.944921	-0.412455	0.0999876	-0.131359	0.29007	-0.156161	0	0	0.177789	-0.0880613	-0.166964	0.253936	-0.144948	0	0	-0.467254	0.101237	0.0392769	-0.102527	-0.630877	0.83869	0.901387	0.532042	0	0	-0.105044	-0.316898	0.344613	0.651071	1.08827	0	0
1.4	2.90236	1.34514	-1.29605	0.798125	0.609047	0.943772	-0.415503	0.0996846	-0.132295	0.297582	-0.156031	0	0	0.169322	-0.0855211	-0.164001	0.214621	-0.152994	0	0	-0.462806	0.102384	0.042118	-0.105852	-0.629628	0.834605	0.898935	0.534541	0	0	-0.101857	-0.31639	0.35162	0.646914	1.08478	0	0
1.41	2.89327	1.34747	-1.28799	0.797501	0.618234	0.942688	-0.41888	0.0989594	-0.132136	0.305735	-0.156723	0	0	0.163131	-0.0844821	-0.162509	0.193021	-0.159984	0	0	-0.459105	0.102954	0.0448284	-0.1087	-0.62808	0.8311	0.896092	0.536806	0	0	-0.0998469	-0.315702	0.356751	0.643242	1.08153	0	0
1.42	2.88672	1.34827	-1.28281	0.79685	0.627497	0.941797	-0.423832	0.0979968	-0.13056	0.313921	-0.158644	0	0	0.158837	-0.0842078	-0.161663	0.192507	-0.165573	0	0	-0.457225	0.103114	0.0470655	-0.110877	-0.62661	0.828264	0.893447	0.538081	0	0	-0.0990334	-0.314998	0.359736	0.640975	1.07982	0	0
1.43	2.88487	1.34784	-1.28247	0.796191	0.636872	0.941133	-0.430051	0.0962456	-0.127953	0.322574	-0.161506	0	0	0.153727	-0.0828393	-0.156811	0.204703	-0.172053	0	0	-0.456743	0.102552	0.0493228	-0.113069	-0.625144	0.825793	0.890979	0.539396	0	0	-0.0985659	-0.31434	0.362089	0.639186	1.07863	0	0
1.44	2.88696	1.34647	-1.28674	0.79555	0.646522	0.940657	-0.437555	0.0935958	-0.125214	0.331463	-0.165405	0	0	0.147313	-0.0806011	-0.1523	0.22476	-0.175883	0	0	-0.456923	0.101128	0.0515813	-0.115433	-0.623618	0.823679	0.888473	0.541042	0	0	-0.0990503	-0.313582	0.363543	0.637495	1.07754	0	0
1.45	2.89478	1.34418	-1.29647	0.794792	0.656453	0.940322	-0.446601	0.0897372	-0.123242	0.340216	-0.170242	0	0	0.139634	-0.0768817	-0.149766	0.247045	-0.17464	0	0	-0.457697	0.0988011	0.0531603	-0.118693	-0.622182	0.821081	0.88643	0.543083	0	0	-0.100425	-0.313124	0.364909	0.636215	1.07686	0	0
1.46	2.9089	1.34195	-1.3116	0.793837	0.666656	0.940067	-0.455789	0.0845134	-0.121482	0.349196	-0.176131	0	0	0.130874	-0.0706708	-0.14722	0.262969	-0.171972	0	0	-0.458246	0.0954174	0.0533863	-0.123012	-0.620484	0.817434	0.884521	0.545432	0	0	-0.102836	-0.313131	0.366178	0.636067	1.07697	0	0
1.47	2.92689	1.34013	-1.32951	0.792708	0.677124	0.939932	-0.46448	0.0787947	-0.120287	0.358473	-0.183201	0	0	0.121782	-0.062916	-0.144477	0.270495	-0.174744	0	0	-0.458151	0.0914209	0.0522314	-0.128237	-0.618426	0.812636	0.882647	0.548272	0	0	-0.10646	-0.313467	0.366538	0.637184	1.07751	0	0
1.48	2.94634	1.33919	-1.34819	0.791501	0.687815	0.939931	-0.471654	0.0728468	-0.118729	0.368644	-0.191984	0	0	0.112641	-0.054838	-0.140841	0.271507	-0.186364	0	0	-0.457003	0.086891	0.0500873	-0.133606	-0.615765	0.807804	0.879999	0.552068	0	0	-0.110895	-0.313821	0.365725	0.638572	1.07822	0	0
1.49	2.96594	1.33842	-1.36789	0.790379	0.698545	0.940049	-0.477284	0.0661085	-0.115058	0.380901	-0.203212	0	0	0.102043	-0.0472205	-0.137452	0.267753	-0.206872	0	0	-0.45561	0.0816327	0.0482001	-0.138434	-0.612581	0.803298	0.876582	0.557899	0	0	-0.115903	-0.314326	0.363835	0.64044	1.07912	0	0
1.5	2.98302	1.33837	-1.38478	0.789121	0.709314	0.940027	-0.481319	0.0601998	-0.110216	0.393972	-0.215371	0	0	0.0925608	-0.0402532	-0.133627	0.265054	-0.229654	0	0	-0.452889	0.0770861	0.0460266	-0.144044	-0.610217	0.798277	0.874212	0.564022	0	0	-0.121768	-0.314743	0.361008	0.643203	1.08043	0	0
1.51	2.99545	1.33883	-1.39576	0.787567	0.720177	0.939857	-0.48348	0.0556036	-0.106518	0.408991	-0.229341	0	0	0.0856715	-0.0347662	-0.128962	0.267005	-0.250475	0	0	-0.449007	0.0743581	0.0430169	-0.150792	-0.60896	0.792263	0.873233	0.570184	0	0	-0.12867	-0.314908	0.357748	0.646994	1.08266	0	0
1.52	3.00401	1.33962	-1.40154	0.785724	0.731149	0.939668	-0.483076	0.0515898	-0.105263	0.427967	-0.247649	0	0	0.0819723	-0.0307126	-0.121629	0.276341	-0.268869	0	0	-0.444529	0.0733157	0.0389788	-0.15804	-0.60853	0.785835	0.87303	0.577846	0	0	-0.136055	-0.314495	0.353748	0.650968	1.08577	0	0
1.53	3.01244	1.34084	-1.4068	0.783756	0.742283	0.939635	-0.480424	0.0469376	-0.105307	0.449446	-0.269729	0	0	0.0811569	-0.0271219	-0.113526	0.293911	-0.281346	0	0	-0.439266	0.0725119	0.0343555	-0.165214	-0.607847	0.779539	0.871896	0.587542	0	0	-0.143355	-0.313159	0.348654	0.653591	1.08952	0	0
1.54	3.02453	1.34173	-1.41546	0.781789	0.753444	0.939914	-0.476554	0.0410929	-0.104236	0.472313	-0.294288	0	0	0.07968	-0.0229066	-0.105891	0.312677	-0.287646	0	0	-0.434385	0.0710269	0.029435	-0.172152	-0.606209	0.773224	0.869623	0.595577	0	0	-0.149726	-0.311608	0.344078	0.654744	1.0937	0	0
1.55	3.03933	1.34151	-1.42657	0.779853	0.764547	0.940532	-0.472023	0.0344854	-0.102263	0.497162	-0.323036	0	0	0.0762671	-0.0180964	-0.100295	0.330866	-0.287093	0	0	-0.430933	0.0691346	0.0244739	-0.178265	-0.604325	0.767787	0.866699	0.602943	0	0	-0.155269	-0.310079	0.339699	0.655212	1.09796	0	0
1.56	3.05559	1.34032	-1.43869	0.777881	0.7755	0.941415	-0.466339	0.0273686	-0.0994275	0.524713	-0.355669	0	0	0.0704299	-0.0127882	-0.0971126	0.346357	-0.280377	0	0	-0.428893	0.0672236	0.0193099	-0.183303	-0.602818	0.763592	0.863748	0.610289	0	0	-0.159984	-0.308322	0.335221	0.655288	1.10202	0	0
1.57	3.07196	1.33865	-1.45058	0.775873	0.786272	0.942469	-0.46285	0.0216352	-0.0917124	0.544588	-0.397427	0	0	0.0627781	-0.00725304	-0.09668	0.359791	-0.269888	0	0	-0.427578	0.0653383	0.013707	-0.187298	-0.600893	0.760014	0.859847	0.61894	0	0	-0.164204	-0.306113	0.32968	0.655152	1.10671	0	0
1.58	3.08842	1.33651	-1.46291	0.773961	0.796845	0.943565	-0.453249	0.0144269	-0.0855087	0.577875	-0.438218	0	0	0.0532149	-0.00183078	-0.0993907	0.371307	-0.259005	0	0	-0.427184	0.0633355	0.00837417	-0.191358	-0.598862	0.755562	0.856739	0.624989	0	0	-0.168186	-0.304068	0.324202	0.655706	1.11094	0	0
1.59	3.10271	1.33397	-1.47344	0.772092	0.807222	0.944625	-0.440138	0.00734003	-0.0783887	0.61688	-0.481628	0	0	0.0428979	0.00262814	-0.10486	0.38403	-0.246214	0	0	-0.427611	0.0617806	0.00383334	-0.194813	-0.597574	0.752378	0.854171	0.629688	0	0	-0.17198	-0.302392	0.319609	0.657184	1.11615	0	0
1.6	3.11386	1.33119	-1.48146	0.770221	0.817387	0.945558	-0.423286	0.000474579	-0.0711583	0.661185	-0.529657	0	0	0.0327835	0.00521748	-0.114666	0.399346	-0.231629	0	0	-0.428629	0.0609274	-4.88199e-05	-0.197271	-0.597839	0.751458	0.85266	0.633989	0	0	-0.175713	-0.300914	0.315788	0.65954	1.12156	0	0
1.61	3.12223	1.32842	-1.48744	0.768383	0.827265	0.946372	-0.402917	-0.00612456	-0.0638956	0.70974	-0.576888	0	0	0.02212	0.00657144	-0.12535	0.413259	-0.216902	0	0	-0.430083	0.0606867	-0.00373904	-0.199192	-0.599955	0.750908	0.85384	0.638127	0	0	-0.179233	-0.299415	0.312348	0.66218	1.12552	0	0
1.62	3.12943	1.32492	-1.49324	0.766624	0.836804	0.947181	-0.380649	-0.0126683	-0.0571115	0.761408	-0.61517	0	0	0.00855231	0.00829897	-0.131344	0.420528	-0.203917	0	0	-0.432854	0.0606922	-0.00677581	-0.202304	-0.602983	0.746045	0.858368	0.639969	0	0	-0.182424	-0.29785	0.308401	0.665787	1.12809	0	0
1.63	3.13443	1.32151	-1.49815	0.765093	0.846044	0.947962	-0.355825	-0.0190448	-0.0506174	0.816326	-0.642628	0	0	-0.0060772	0.00977338	-0.134906	0.422719	-0.193439	0	0	-0.4361	0.0607227	-0.00822584	-0.205158	-0.606141	0.740642	0.863424	0.64132	0	0	-0.184683	-0.296311	0.304686	0.669434	1.13025	0	0
1.64	3.13747	1.31851	-1.50216	0.763836	0.854914	0.948742	-0.328252	-0.0251475	-0.0447019	0.873414	-0.661419	0	0	-0.020205	0.0106664	-0.136856	0.423325	-0.184947	0	0	-0.439708	0.060611	-0.00885075	-0.206204	-0.609179	0.73701	0.868004	0.642937	0	0	-0.185812	-0.294969	0.301497	0.672339	1.13168	0	0
1.65	3.13797	1.31644	-1.50439	0.762818	0.86344	0.949515	-0.297801	-0.0306094	-0.0401281	0.930232	-0.676963	0	0	-0.0334766	0.0109493	-0.136562	0.421903	-0.178266	0	0	-0.442718	0.0605041	-0.00881838	-0.205155	-0.612055	0.735973	0.87144	0.64503	0	0	-0.185619	-0.293746	0.299344	0.673854	1.13308	0	0
1.66	3.1344	1.31489	-1.5031	0.761992	0.871671	0.950337	-0.26528	-0.0347972	-0.0367264	0.985321	-0.691343	0	0	-0.0466077	0.0100926	-0.135212	0.417992	-0.17329	0	0	-0.445415	0.0610764	-0.00830187	-0.201944	-0.614744	0.737508	0.873427	0.647279	0	0	-0.184283	-0.292206	0.297612	0.673693	1.13438	0	0
1.67	3.1227	1.31299	-1.49416	0.761179	0.879584	0.95146	-0.233713	-0.0333735	-0.026288	1.03462	-0.69522	0	0	-0.0605275	0.00718098	-0.133975	0.41233	-0.169539	0	0	-0.44859	0.0639725	-0.00696699	-0.196755	-0.617277	0.740767	0.873492	0.648153	0	0	-0.180571	-0.288902	0.296242	0.669421	1.13592	0	0
1.68	3.11916	1.3138	-1.49376	0.76071	0.887639	0.952037	-0.196355	-0.040412	-0.0315261	1.08907	-0.682393	0	0	-0.0721446	0.00687817	-0.133581	0.40651	-0.16476	0	0	-0.448235	0.0640815	-0.0063296	-0.192639	-0.618742	0.743441	0.874103	0.646922	0	0	-0.17849	-0.287037	0.294489	0.66681	1.13744	0	0
1.69	3.10965	1.31502	-1.4871	0.760125	0.895574	0.952845	-0.161129	-0.042903	-0.0316523	1.13485	-0.649458	0	0	-0.0839906	0.00566272	-0.13237	0.399335	-0.159974	0	0	-0.446852	0.066046	-0.00507146	-0.186945	-0.619761	0.749067	0.871881	0.642922	0	0	-0.174219	-0.283203	0.292505	0.659721	1.14017	0	0
